<mxfile host="Electron" agent="Mozilla/5.0 (Macintosh; Intel Mac OS X 10_15_7) AppleWebKit/537.36 (KHTML, like Gecko) draw.io/27.0.9 Chrome/134.0.6998.205 Electron/35.4.0 Safari/537.36" version="27.0.9">
  <diagram name="Page-1" id="9WJ5CnY7mqUqaqPqsNW2">
    <mxGraphModel dx="1843" dy="1007" grid="1" gridSize="10" guides="1" tooltips="1" connect="1" arrows="1" fold="1" page="1" pageScale="1" pageWidth="550" pageHeight="200" math="1" shadow="0">
      <root>
        <mxCell id="0" />
        <mxCell id="1" parent="0" />
        <mxCell id="5n4zivAxYMczNJFpF0y0-1" value="" style="rounded=0;whiteSpace=wrap;html=1;fillColor=#dae8fc;strokeColor=#6c8ebf;dashed=1;strokeWidth=2;" vertex="1" parent="1">
          <mxGeometry x="540" y="30" width="530" height="330" as="geometry" />
        </mxCell>
        <mxCell id="5n4zivAxYMczNJFpF0y0-2" value="" style="rounded=0;whiteSpace=wrap;html=1;fillColor=#eeeeee;strokeColor=#36393d;dashed=1;strokeWidth=2;" vertex="1" parent="1">
          <mxGeometry x="30" y="30" width="510" height="330" as="geometry" />
        </mxCell>
        <mxCell id="5n4zivAxYMczNJFpF0y0-3" value="&lt;font style=&quot;font-size: 14px;&quot;&gt;`z_T \sim \mathcal{N} (0, 1)`&lt;/font&gt;" style="rounded=1;whiteSpace=wrap;html=1;fillColor=#bac8d3;strokeColor=#23445d;" vertex="1" parent="1">
          <mxGeometry x="40" y="219" width="100" height="40" as="geometry" />
        </mxCell>
        <mxCell id="5n4zivAxYMczNJFpF0y0-4" value="&lt;font style=&quot;font-size: 14px;&quot;&gt;`\cdots`&lt;/font&gt;" style="text;html=1;align=center;verticalAlign=middle;resizable=0;points=[];autosize=1;strokeColor=none;fillColor=none;" vertex="1" parent="1">
          <mxGeometry x="125" y="224" width="70" height="30" as="geometry" />
        </mxCell>
        <mxCell id="5n4zivAxYMczNJFpF0y0-5" style="edgeStyle=orthogonalEdgeStyle;rounded=0;orthogonalLoop=1;jettySize=auto;html=1;exitX=1;exitY=0.5;exitDx=0;exitDy=0;" edge="1" parent="1" source="5n4zivAxYMczNJFpF0y0-6" target="5n4zivAxYMczNJFpF0y0-8">
          <mxGeometry relative="1" as="geometry" />
        </mxCell>
        <mxCell id="5n4zivAxYMczNJFpF0y0-6" value="&lt;font style=&quot;font-size: 14px;&quot;&gt;`z_{\tau_\alpha}`&lt;/font&gt;" style="rounded=1;whiteSpace=wrap;html=1;fillColor=#bac8d3;strokeColor=#23445d;" vertex="1" parent="1">
          <mxGeometry x="180" y="219" width="40" height="40" as="geometry" />
        </mxCell>
        <mxCell id="5n4zivAxYMczNJFpF0y0-7" value="" style="edgeStyle=orthogonalEdgeStyle;rounded=0;orthogonalLoop=1;jettySize=auto;html=1;" edge="1" parent="1" source="5n4zivAxYMczNJFpF0y0-8" target="5n4zivAxYMczNJFpF0y0-9">
          <mxGeometry relative="1" as="geometry" />
        </mxCell>
        <mxCell id="5n4zivAxYMczNJFpF0y0-8" value="&lt;div style=&quot;text-align: start;&quot;&gt;&lt;span style=&quot;font-size: 14px; background-color: transparent; color: light-dark(rgb(0, 0, 0), rgb(255, 255, 255));&quot;&gt;`\hat{\epsilon}_{\omega_\alpha}`&lt;/span&gt;&lt;/div&gt;" style="rounded=1;whiteSpace=wrap;html=1;fillColor=#bac8d3;strokeColor=#23445d;" vertex="1" parent="1">
          <mxGeometry x="250" y="219" width="40" height="40" as="geometry" />
        </mxCell>
        <mxCell id="5n4zivAxYMczNJFpF0y0-9" value="&lt;div style=&quot;text-align: start;&quot;&gt;&lt;span style=&quot;background-color: transparent; color: light-dark(rgb(0, 0, 0), rgb(255, 255, 255));&quot;&gt;&lt;font style=&quot;font-size: 14px;&quot;&gt;`\hat{z}_{0_\alpha}`&lt;/font&gt;&lt;/span&gt;&lt;/div&gt;" style="rounded=1;whiteSpace=wrap;html=1;fillColor=#bac8d3;strokeColor=#23445d;fontSize=12;" vertex="1" parent="1">
          <mxGeometry x="320" y="219" width="40" height="40" as="geometry" />
        </mxCell>
        <mxCell id="5n4zivAxYMczNJFpF0y0-10" value="" style="endArrow=classic;html=1;rounded=0;" edge="1" parent="1">
          <mxGeometry width="50" height="50" relative="1" as="geometry">
            <mxPoint x="370" y="240" as="sourcePoint" />
            <mxPoint x="430" y="240" as="targetPoint" />
          </mxGeometry>
        </mxCell>
        <mxCell id="5n4zivAxYMczNJFpF0y0-11" value="&lt;font face=&quot;Lucida Console&quot; style=&quot;font-size: 14px;&quot;&gt;Dual Early Prediction&lt;/font&gt;&lt;div&gt;&lt;font face=&quot;Lucida Console&quot;&gt;&lt;span style=&quot;font-size: 14px;&quot;&gt;`P_\alpha, P_\beta`&lt;/span&gt;&lt;/font&gt;&lt;/div&gt;" style="text;html=1;align=center;verticalAlign=middle;resizable=0;points=[];autosize=1;strokeColor=none;fillColor=none;" vertex="1" parent="1">
          <mxGeometry x="384.5" y="310" width="150" height="50" as="geometry" />
        </mxCell>
        <mxCell id="5n4zivAxYMczNJFpF0y0-12" value="" style="whiteSpace=wrap;html=1;aspect=fixed;" vertex="1" parent="1">
          <mxGeometry x="435" y="200" width="79" height="79" as="geometry" />
        </mxCell>
        <mxCell id="5n4zivAxYMczNJFpF0y0-13" value="&lt;font face=&quot;Lucida Console&quot; style=&quot;font-size: 16px;&quot;&gt;Dehazing Estimate Generation&lt;/font&gt;" style="text;html=1;align=center;verticalAlign=middle;resizable=0;points=[];autosize=1;strokeColor=none;fillColor=none;" vertex="1" parent="1">
          <mxGeometry x="30" y="320" width="220" height="30" as="geometry" />
        </mxCell>
        <mxCell id="5n4zivAxYMczNJFpF0y0-14" value="&lt;font style=&quot;font-size: 14px;&quot;&gt;`\mathcal{D}`&lt;/font&gt;" style="text;html=1;align=center;verticalAlign=middle;resizable=0;points=[];autosize=1;strokeColor=none;fillColor=none;" vertex="1" parent="1">
          <mxGeometry x="340" y="210" width="110" height="30" as="geometry" />
        </mxCell>
        <mxCell id="5n4zivAxYMczNJFpF0y0-15" style="edgeStyle=orthogonalEdgeStyle;rounded=0;orthogonalLoop=1;jettySize=auto;html=1;exitX=0;exitY=0.5;exitDx=0;exitDy=0;" edge="1" parent="1" source="5n4zivAxYMczNJFpF0y0-16" target="5n4zivAxYMczNJFpF0y0-22">
          <mxGeometry relative="1" as="geometry" />
        </mxCell>
        <mxCell id="5n4zivAxYMczNJFpF0y0-16" value="" style="whiteSpace=wrap;html=1;aspect=fixed;" vertex="1" parent="1">
          <mxGeometry x="260" y="70" width="80" height="80" as="geometry" />
        </mxCell>
        <mxCell id="5n4zivAxYMczNJFpF0y0-17" value="" style="endArrow=classic;html=1;rounded=0;exitX=0.5;exitY=0;exitDx=0;exitDy=0;entryX=0;entryY=0.75;entryDx=0;entryDy=0;" edge="1" parent="1" source="5n4zivAxYMczNJFpF0y0-12" target="5n4zivAxYMczNJFpF0y0-19">
          <mxGeometry width="50" height="50" relative="1" as="geometry">
            <mxPoint x="430" y="130" as="sourcePoint" />
            <mxPoint x="480" y="80" as="targetPoint" />
            <Array as="points">
              <mxPoint x="475" y="130" />
            </Array>
          </mxGeometry>
        </mxCell>
        <mxCell id="5n4zivAxYMczNJFpF0y0-19" value="" style="whiteSpace=wrap;html=1;aspect=fixed;" vertex="1" parent="1">
          <mxGeometry x="560" y="71" width="79" height="79" as="geometry" />
        </mxCell>
        <mxCell id="5n4zivAxYMczNJFpF0y0-20" value="" style="endArrow=classic;html=1;rounded=0;entryX=0;entryY=0.5;entryDx=0;entryDy=0;exitX=1;exitY=0.5;exitDx=0;exitDy=0;" edge="1" parent="1" target="5n4zivAxYMczNJFpF0y0-19" source="5n4zivAxYMczNJFpF0y0-16">
          <mxGeometry width="50" height="50" relative="1" as="geometry">
            <mxPoint x="435" y="110" as="sourcePoint" />
            <mxPoint x="485" y="60" as="targetPoint" />
          </mxGeometry>
        </mxCell>
        <mxCell id="5n4zivAxYMczNJFpF0y0-21" value="&lt;div&gt;&lt;font face=&quot;Lucida Console&quot; style=&quot;font-size: 14px;&quot;&gt;&lt;i style=&quot;&quot;&gt;&lt;b&gt;ISR&lt;/b&gt;&lt;/i&gt;&lt;/font&gt;&lt;/div&gt;&lt;font face=&quot;Lucida Console&quot; style=&quot;font-size: 14px;&quot;&gt;&lt;i style=&quot;&quot;&gt;&lt;b&gt;AlignOp&lt;/b&gt;&lt;/i&gt;&lt;/font&gt;" style="text;html=1;align=center;verticalAlign=middle;resizable=0;points=[];autosize=1;strokeColor=none;fillColor=none;" vertex="1" parent="1">
          <mxGeometry x="400" y="113" width="70" height="50" as="geometry" />
        </mxCell>
        <mxCell id="5n4zivAxYMczNJFpF0y0-22" value="" style="whiteSpace=wrap;html=1;aspect=fixed;" vertex="1" parent="1">
          <mxGeometry x="91" y="71" width="79" height="79" as="geometry" />
        </mxCell>
        <mxCell id="5n4zivAxYMczNJFpF0y0-23" value="&lt;font face=&quot;Lucida Console&quot; style=&quot;font-size: 14px;&quot;&gt;Hazy Image `I`&lt;/font&gt;" style="text;html=1;align=center;verticalAlign=middle;resizable=0;points=[];autosize=1;strokeColor=none;fillColor=none;" vertex="1" parent="1">
          <mxGeometry x="245" y="150" width="110" height="30" as="geometry" />
        </mxCell>
        <mxCell id="5n4zivAxYMczNJFpF0y0-24" value="&lt;font face=&quot;Lucida Console&quot; style=&quot;font-size: 14px;&quot;&gt;Weight Map `\mathcal{W}`&lt;/font&gt;" style="text;html=1;align=center;verticalAlign=middle;resizable=0;points=[];autosize=1;strokeColor=none;fillColor=none;" vertex="1" parent="1">
          <mxGeometry x="40.5" y="150" width="180" height="30" as="geometry" />
        </mxCell>
        <mxCell id="5n4zivAxYMczNJFpF0y0-25" value="&lt;font face=&quot;Lucida Console&quot; style=&quot;font-size: 14px;&quot;&gt;Transmission&lt;/font&gt;" style="text;html=1;align=center;verticalAlign=middle;resizable=0;points=[];autosize=1;strokeColor=none;fillColor=none;" vertex="1" parent="1">
          <mxGeometry x="170" y="80" width="100" height="30" as="geometry" />
        </mxCell>
        <mxCell id="5n4zivAxYMczNJFpF0y0-26" value="&lt;font face=&quot;Lucida Console&quot; style=&quot;font-size: 14px;&quot;&gt;Estimate&lt;/font&gt;" style="text;html=1;align=center;verticalAlign=middle;resizable=0;points=[];autosize=1;strokeColor=none;fillColor=none;" vertex="1" parent="1">
          <mxGeometry x="185" y="110" width="70" height="30" as="geometry" />
        </mxCell>
        <mxCell id="5n4zivAxYMczNJFpF0y0-27" value="&lt;font style=&quot;font-size: 14px;&quot; face=&quot;Lucida Console&quot;&gt;Dehazing Estimate `\hat{J}`&lt;/font&gt;" style="text;html=1;align=center;verticalAlign=middle;whiteSpace=wrap;rounded=0;" vertex="1" parent="1">
          <mxGeometry x="563.75" y="155" width="71.5" height="30" as="geometry" />
        </mxCell>
        <mxCell id="5n4zivAxYMczNJFpF0y0-28" style="edgeStyle=orthogonalEdgeStyle;rounded=0;orthogonalLoop=1;jettySize=auto;html=1;exitX=1;exitY=0.5;exitDx=0;exitDy=0;entryX=0;entryY=0.5;entryDx=0;entryDy=0;" edge="1" parent="1" source="5n4zivAxYMczNJFpF0y0-29" target="5n4zivAxYMczNJFpF0y0-32">
          <mxGeometry relative="1" as="geometry" />
        </mxCell>
        <mxCell id="5n4zivAxYMczNJFpF0y0-29" value="&lt;font style=&quot;font-size: 14px;&quot;&gt;`z_\omega`&lt;/font&gt;" style="rounded=1;whiteSpace=wrap;html=1;fillColor=#bac8d3;strokeColor=#23445d;" vertex="1" parent="1">
          <mxGeometry x="579.5" y="219" width="40" height="40" as="geometry" />
        </mxCell>
        <mxCell id="5n4zivAxYMczNJFpF0y0-30" value="" style="endArrow=classic;html=1;rounded=0;entryX=0.5;entryY=0;entryDx=0;entryDy=0;exitX=0.5;exitY=1;exitDx=0;exitDy=0;" edge="1" parent="1" source="5n4zivAxYMczNJFpF0y0-27" target="5n4zivAxYMczNJFpF0y0-29">
          <mxGeometry width="50" height="50" relative="1" as="geometry">
            <mxPoint x="655" y="205" as="sourcePoint" />
            <mxPoint x="705" y="155" as="targetPoint" />
          </mxGeometry>
        </mxCell>
        <mxCell id="5n4zivAxYMczNJFpF0y0-31" style="edgeStyle=orthogonalEdgeStyle;rounded=0;orthogonalLoop=1;jettySize=auto;html=1;exitX=1;exitY=0.5;exitDx=0;exitDy=0;entryX=0;entryY=0.5;entryDx=0;entryDy=0;" edge="1" parent="1" source="5n4zivAxYMczNJFpF0y0-32" target="5n4zivAxYMczNJFpF0y0-33">
          <mxGeometry relative="1" as="geometry">
            <Array as="points">
              <mxPoint x="690" y="240" />
            </Array>
          </mxGeometry>
        </mxCell>
        <mxCell id="5n4zivAxYMczNJFpF0y0-32" value="&lt;div style=&quot;text-align: start;&quot;&gt;&lt;span style=&quot;font-size: 14px; background-color: transparent; color: light-dark(rgb(0, 0, 0), rgb(255, 255, 255));&quot;&gt;`\hat{\epsilon}_\omega`&lt;/span&gt;&lt;/div&gt;" style="rounded=1;whiteSpace=wrap;html=1;fillColor=#bac8d3;strokeColor=#23445d;" vertex="1" parent="1">
          <mxGeometry x="650" y="219" width="40" height="40" as="geometry" />
        </mxCell>
        <mxCell id="5n4zivAxYMczNJFpF0y0-33" value="&lt;div style=&quot;text-align: start;&quot;&gt;&lt;span style=&quot;background-color: transparent; color: light-dark(rgb(0, 0, 0), rgb(255, 255, 255));&quot;&gt;&lt;font style=&quot;font-size: 14px;&quot;&gt;`\hat{z}_0`&lt;/font&gt;&lt;/span&gt;&lt;/div&gt;" style="rounded=1;whiteSpace=wrap;html=1;fillColor=#bac8d3;strokeColor=#23445d;fontSize=12;" vertex="1" parent="1">
          <mxGeometry x="720" y="220" width="40" height="40" as="geometry" />
        </mxCell>
        <mxCell id="5n4zivAxYMczNJFpF0y0-34" value="&lt;div style=&quot;text-align: start;&quot;&gt;&lt;span style=&quot;background-color: transparent; color: light-dark(rgb(0, 0, 0), rgb(255, 255, 255));&quot;&gt;&lt;font style=&quot;font-size: 14px;&quot;&gt;`\hat{z}_0`&lt;/font&gt;&lt;/span&gt;&lt;/div&gt;" style="rounded=1;whiteSpace=wrap;html=1;fillColor=#bac8d3;strokeColor=#23445d;fontSize=12;" vertex="1" parent="1">
          <mxGeometry x="764" y="220" width="40" height="40" as="geometry" />
        </mxCell>
        <mxCell id="5n4zivAxYMczNJFpF0y0-35" value="" style="endArrow=classic;html=1;rounded=0;exitX=0.5;exitY=0;exitDx=0;exitDy=0;entryX=0.176;entryY=0.997;entryDx=0;entryDy=0;entryPerimeter=0;" edge="1" parent="1" source="5n4zivAxYMczNJFpF0y0-33" target="5n4zivAxYMczNJFpF0y0-38">
          <mxGeometry width="50" height="50" relative="1" as="geometry">
            <mxPoint x="740.0000000000002" y="200" as="sourcePoint" />
            <mxPoint x="750" y="180" as="targetPoint" />
          </mxGeometry>
        </mxCell>
        <mxCell id="5n4zivAxYMczNJFpF0y0-36" value="" style="endArrow=classic;html=1;rounded=0;entryX=0.5;entryY=0;entryDx=0;entryDy=0;exitX=0.305;exitY=1.002;exitDx=0;exitDy=0;exitPerimeter=0;" edge="1" parent="1" source="5n4zivAxYMczNJFpF0y0-38" target="5n4zivAxYMczNJFpF0y0-34">
          <mxGeometry width="50" height="50" relative="1" as="geometry">
            <mxPoint x="784" y="190" as="sourcePoint" />
            <mxPoint x="790" y="80" as="targetPoint" />
          </mxGeometry>
        </mxCell>
        <mxCell id="5n4zivAxYMczNJFpF0y0-37" value="" style="endArrow=classic;html=1;rounded=0;exitX=1;exitY=0.5;exitDx=0;exitDy=0;entryX=0;entryY=0.5;entryDx=0;entryDy=0;" edge="1" parent="1" source="5n4zivAxYMczNJFpF0y0-19" target="5n4zivAxYMczNJFpF0y0-38">
          <mxGeometry width="50" height="50" relative="1" as="geometry">
            <mxPoint x="680" y="90" as="sourcePoint" />
            <mxPoint x="680" y="111" as="targetPoint" />
          </mxGeometry>
        </mxCell>
        <mxCell id="5n4zivAxYMczNJFpF0y0-38" value="&lt;font style=&quot;font-size: 16px;&quot;&gt;Density-aware Fidelity Guidance&lt;/font&gt;&lt;div&gt;`\mathcal{L}(\mathcal{D}(\hat z_0)) = \text{MS-SSIM}(\mathcal{D}(\hat z_0), \hat J)`&lt;/div&gt;&lt;div&gt;`\hat z_0 \leftarrow \hat z_0 - s \cdot J_{\mathcal{D}}(\hat z_0)^{\mathsf{T}} (\mathcal{W} \otimes \nabla_{\mathcal{D}(\hat z_0)}\mathcal{L}(\mathcal{D}(\hat z_0)))`&lt;/div&gt;" style="rounded=1;whiteSpace=wrap;html=1;fillColor=#ffe6cc;strokeColor=#d79b00;fontFamily=Lucida Console;fontSize=14;" vertex="1" parent="1">
          <mxGeometry x="680" y="58" width="340" height="105" as="geometry" />
        </mxCell>
        <mxCell id="5n4zivAxYMczNJFpF0y0-39" value="&lt;font style=&quot;font-size: 14px;&quot;&gt;`\cdots`&lt;/font&gt;" style="text;html=1;align=center;verticalAlign=middle;resizable=0;points=[];autosize=1;strokeColor=none;fillColor=none;" vertex="1" parent="1">
          <mxGeometry x="790" y="224" width="70" height="30" as="geometry" />
        </mxCell>
        <mxCell id="5n4zivAxYMczNJFpF0y0-40" value="&lt;div style=&quot;text-align: start;&quot;&gt;&lt;span style=&quot;background-color: transparent; color: light-dark(rgb(0, 0, 0), rgb(255, 255, 255));&quot;&gt;&lt;font style=&quot;font-size: 14px;&quot;&gt;`\hat{z}_0`&lt;/font&gt;&lt;/span&gt;&lt;/div&gt;" style="rounded=1;whiteSpace=wrap;html=1;fillColor=#bac8d3;strokeColor=#23445d;fontSize=12;" vertex="1" parent="1">
          <mxGeometry x="847" y="220" width="40" height="40" as="geometry" />
        </mxCell>
        <mxCell id="5n4zivAxYMczNJFpF0y0-41" value="&lt;font style=&quot;font-size: 14px;&quot;&gt;`\mathcal{D}`&lt;/font&gt;" style="text;html=1;align=center;verticalAlign=middle;resizable=0;points=[];autosize=1;strokeColor=none;fillColor=none;" vertex="1" parent="1">
          <mxGeometry x="870" y="210" width="110" height="30" as="geometry" />
        </mxCell>
        <mxCell id="5n4zivAxYMczNJFpF0y0-42" value="" style="endArrow=classic;html=1;rounded=0;" edge="1" parent="1">
          <mxGeometry width="50" height="50" relative="1" as="geometry">
            <mxPoint x="897" y="240" as="sourcePoint" />
            <mxPoint x="957" y="240" as="targetPoint" />
          </mxGeometry>
        </mxCell>
        <mxCell id="5n4zivAxYMczNJFpF0y0-43" value="" style="whiteSpace=wrap;html=1;aspect=fixed;" vertex="1" parent="1">
          <mxGeometry x="964" y="199.5" width="79" height="79" as="geometry" />
        </mxCell>
        <mxCell id="5n4zivAxYMczNJFpF0y0-44" value="&lt;font face=&quot;Lucida Console&quot; style=&quot;font-size: 14px;&quot;&gt;Guided Refinement&lt;/font&gt;" style="text;html=1;align=center;verticalAlign=middle;resizable=0;points=[];autosize=1;strokeColor=none;fillColor=none;" vertex="1" parent="1">
          <mxGeometry x="938.5" y="278.5" width="130" height="30" as="geometry" />
        </mxCell>
        <mxCell id="5n4zivAxYMczNJFpF0y0-45" value="&lt;font style=&quot;color: rgb(255, 179, 29);&quot; face=&quot;Lucida Console&quot;&gt;Low Weight&lt;/font&gt;" style="text;html=1;align=center;verticalAlign=middle;resizable=0;points=[];autosize=1;strokeColor=none;fillColor=none;fontColor=#FFDE0E;" vertex="1" parent="1">
          <mxGeometry x="90" y="71" width="80" height="30" as="geometry" />
        </mxCell>
        <mxCell id="5n4zivAxYMczNJFpF0y0-48" value="&lt;font face=&quot;Lucida Console&quot; color=&quot;#ffb31d&quot;&gt;Dense Haze&lt;/font&gt;" style="text;html=1;align=center;verticalAlign=middle;resizable=0;points=[];autosize=1;strokeColor=none;fillColor=none;fontColor=#FFDE0E;" vertex="1" parent="1">
          <mxGeometry x="260" y="70" width="80" height="30" as="geometry" />
        </mxCell>
        <mxCell id="5n4zivAxYMczNJFpF0y0-50" value="&lt;font style=&quot;color: rgb(142, 29, 255);&quot; face=&quot;Lucida Console&quot;&gt;Large Weight&lt;/font&gt;" style="text;html=1;align=center;verticalAlign=middle;resizable=0;points=[];autosize=1;strokeColor=none;fillColor=none;container=1;" vertex="1" parent="1">
          <mxGeometry x="85.5" y="120" width="90" height="30" as="geometry" />
        </mxCell>
        <mxCell id="5n4zivAxYMczNJFpF0y0-51" value="&lt;font style=&quot;color: rgb(142, 29, 255);&quot; face=&quot;Lucida Console&quot;&gt;Light Haze&lt;/font&gt;" style="text;html=1;align=center;verticalAlign=middle;resizable=0;points=[];autosize=1;strokeColor=none;fillColor=none;" vertex="1" parent="1">
          <mxGeometry x="260" y="120" width="80" height="30" as="geometry" />
        </mxCell>
        <mxCell id="5n4zivAxYMczNJFpF0y0-53" value="&lt;font style=&quot;font-size: 14px;&quot;&gt;`z_{\tau_\beta}`&lt;/font&gt;" style="rounded=1;whiteSpace=wrap;html=1;fillColor=#bac8d3;strokeColor=#23445d;" vertex="1" parent="1">
          <mxGeometry x="229" y="268.5" width="40" height="40" as="geometry" />
        </mxCell>
        <mxCell id="5n4zivAxYMczNJFpF0y0-60" value="" style="edgeStyle=orthogonalEdgeStyle;rounded=0;orthogonalLoop=1;jettySize=auto;html=1;" edge="1" parent="1" source="5n4zivAxYMczNJFpF0y0-56" target="5n4zivAxYMczNJFpF0y0-57">
          <mxGeometry relative="1" as="geometry" />
        </mxCell>
        <mxCell id="5n4zivAxYMczNJFpF0y0-56" value="&lt;div style=&quot;text-align: start;&quot;&gt;&lt;span style=&quot;font-size: 14px; background-color: transparent; color: light-dark(rgb(0, 0, 0), rgb(255, 255, 255));&quot;&gt;`\hat{\epsilon}_{\omega_\beta}`&lt;/span&gt;&lt;/div&gt;" style="rounded=1;whiteSpace=wrap;html=1;fillColor=#bac8d3;strokeColor=#23445d;" vertex="1" parent="1">
          <mxGeometry x="300" y="268.5" width="40" height="40" as="geometry" />
        </mxCell>
        <mxCell id="5n4zivAxYMczNJFpF0y0-57" value="&lt;div style=&quot;text-align: start;&quot;&gt;&lt;span style=&quot;background-color: transparent; color: light-dark(rgb(0, 0, 0), rgb(255, 255, 255));&quot;&gt;&lt;font style=&quot;font-size: 14px;&quot;&gt;`\hat{z}_{0_\beta}`&lt;/font&gt;&lt;/span&gt;&lt;/div&gt;" style="rounded=1;whiteSpace=wrap;html=1;fillColor=#bac8d3;strokeColor=#23445d;fontSize=12;" vertex="1" parent="1">
          <mxGeometry x="370" y="268.5" width="40" height="40" as="geometry" />
        </mxCell>
        <mxCell id="5n4zivAxYMczNJFpF0y0-58" style="edgeStyle=orthogonalEdgeStyle;rounded=0;orthogonalLoop=1;jettySize=auto;html=1;exitX=1;exitY=0.5;exitDx=0;exitDy=0;entryX=0;entryY=0.5;entryDx=0;entryDy=0;" edge="1" parent="1" source="5n4zivAxYMczNJFpF0y0-53" target="5n4zivAxYMczNJFpF0y0-56">
          <mxGeometry relative="1" as="geometry">
            <mxPoint x="280" y="321" as="sourcePoint" />
            <mxPoint x="280" y="290" as="targetPoint" />
          </mxGeometry>
        </mxCell>
        <mxCell id="5n4zivAxYMczNJFpF0y0-61" value="" style="whiteSpace=wrap;html=1;aspect=fixed;" vertex="1" parent="1">
          <mxGeometry x="455.5" y="231" width="79" height="79" as="geometry" />
        </mxCell>
        <mxCell id="5n4zivAxYMczNJFpF0y0-62" value="`E_1 = AlignOp(I,P_\alpha)`" style="text;html=1;align=center;verticalAlign=middle;resizable=0;points=[];autosize=1;strokeColor=#6c8ebf;fillColor=#dae8fc;" vertex="1" parent="1">
          <mxGeometry x="355" y="40" width="170" height="30" as="geometry" />
        </mxCell>
        <mxCell id="5n4zivAxYMczNJFpF0y0-63" value="`E = AlignOp(E_!, P_\beta)`" style="text;html=1;align=center;verticalAlign=middle;resizable=0;points=[];autosize=1;strokeColor=#6c8ebf;fillColor=#dae8fc;" vertex="1" parent="1">
          <mxGeometry x="355" y="76" width="170" height="30" as="geometry" />
        </mxCell>
      </root>
    </mxGraphModel>
  </diagram>
</mxfile>
